<mxfile host="app.diagrams.net" agent="Mozilla/5.0 (Windows NT 10.0; Win64; x64) AppleWebKit/537.36 (KHTML, like Gecko) Chrome/136.0.0.0 Safari/537.36" version="27.1.1">
  <diagram name="Page-1" id="taYUtSJ_4CDuhA6wjiIW">
    <mxGraphModel dx="8223" dy="4293" grid="1" gridSize="10" guides="1" tooltips="1" connect="1" arrows="1" fold="1" page="1" pageScale="1" pageWidth="850" pageHeight="1100" math="0" shadow="0" adaptiveColors="auto">
      <root>
        <mxCell id="0" />
        <mxCell id="1" parent="0" />
        <mxCell id="h_4dqQD72bOemCukOD2A-11" value="&lt;h1 style=&quot;margin-top: 0px;&quot;&gt;Level 6&lt;/h1&gt;&lt;div&gt;Boss level:&lt;/div&gt;&lt;div&gt;- Incoporating different types of attack, projectiles, AOE damage&lt;/div&gt;&lt;div&gt;- Boss fight timeline&lt;/div&gt;&lt;div&gt;1. Boss starts with their attack&lt;/div&gt;&lt;div&gt;2. Finish boss attacks. Leaves boss vulnerable&lt;/div&gt;&lt;div&gt;3. Player turn to attack, reducing health down roughly 25 - 30% (maximum hp dealt before boss start attacking again)&lt;/div&gt;&lt;div&gt;4. Repeat till Boss HP = 0&lt;/div&gt;&lt;div&gt;5. Play end screen&lt;/div&gt;&lt;div&gt;&lt;br&gt;&lt;/div&gt;" style="text;html=1;whiteSpace=wrap;overflow=hidden;rounded=0;" parent="1" vertex="1">
          <mxGeometry x="-620" y="991.45" width="620" height="310" as="geometry" />
        </mxCell>
        <mxCell id="E4qFbeiB4ODEOkEXqFHY-1" value="&lt;h1 style=&quot;margin-top: 0px;&quot;&gt;&lt;span style=&quot;background-color: transparent; color: light-dark(rgb(0, 0, 0), rgb(255, 255, 255));&quot;&gt;UI&lt;/span&gt;&lt;/h1&gt;" style="text;html=1;whiteSpace=wrap;overflow=hidden;rounded=0;align=center;" parent="1" vertex="1">
          <mxGeometry x="35" y="1010" width="180" height="40" as="geometry" />
        </mxCell>
        <mxCell id="E4qFbeiB4ODEOkEXqFHY-2" value="" style="rounded=0;whiteSpace=wrap;html=1;" parent="1" vertex="1">
          <mxGeometry x="115" y="1050" width="360" height="240" as="geometry" />
        </mxCell>
        <mxCell id="E4qFbeiB4ODEOkEXqFHY-3" value="" style="rounded=0;whiteSpace=wrap;html=1;" parent="1" vertex="1">
          <mxGeometry x="125" y="1060" width="120" height="10" as="geometry" />
        </mxCell>
        <mxCell id="E4qFbeiB4ODEOkEXqFHY-4" value="" style="rounded=0;whiteSpace=wrap;html=1;fillColor=#60a917;fontColor=#ffffff;strokeColor=none;movable=1;resizable=1;rotatable=1;deletable=1;editable=1;locked=0;connectable=1;" parent="1" vertex="1">
          <mxGeometry x="126" y="1061" width="87" height="8" as="geometry" />
        </mxCell>
        <mxCell id="E4qFbeiB4ODEOkEXqFHY-5" value="" style="ellipse;whiteSpace=wrap;html=1;aspect=fixed;strokeWidth=4;" parent="1" vertex="1">
          <mxGeometry x="130" y="1253" width="30" height="30" as="geometry" />
        </mxCell>
        <mxCell id="E4qFbeiB4ODEOkEXqFHY-7" value="&lt;font face=&quot;Tahoma&quot;&gt;8.2&lt;/font&gt;" style="text;html=1;align=center;verticalAlign=middle;whiteSpace=wrap;rounded=0;" parent="1" vertex="1">
          <mxGeometry x="115" y="1251" width="60" height="30" as="geometry" />
        </mxCell>
        <mxCell id="E4qFbeiB4ODEOkEXqFHY-8" value="minimap overlay" style="rounded=0;whiteSpace=wrap;html=1;" parent="1" vertex="1">
          <mxGeometry x="388" y="1057" width="80" height="50" as="geometry" />
        </mxCell>
        <mxCell id="E4qFbeiB4ODEOkEXqFHY-9" value="" style="shape=flexArrow;endArrow=classic;html=1;rounded=0;width=5.714285714285714;endSize=3.095238095238095;endWidth=11.564625850340136;" parent="1" edge="1">
          <mxGeometry width="50" height="50" relative="1" as="geometry">
            <mxPoint x="65" y="1265" as="sourcePoint" />
            <mxPoint x="115" y="1265" as="targetPoint" />
          </mxGeometry>
        </mxCell>
        <mxCell id="E4qFbeiB4ODEOkEXqFHY-10" value="" style="shape=flexArrow;endArrow=classic;html=1;rounded=0;width=5.714285714285714;endSize=3.095238095238095;endWidth=11.564625850340136;" parent="1" edge="1">
          <mxGeometry width="50" height="50" relative="1" as="geometry">
            <mxPoint x="65" y="1065" as="sourcePoint" />
            <mxPoint x="115" y="1064.76" as="targetPoint" />
          </mxGeometry>
        </mxCell>
        <mxCell id="E4qFbeiB4ODEOkEXqFHY-11" value="&lt;div&gt;&lt;font style=&quot;font-size: 8px;&quot;&gt;Ability&amp;nbsp;&lt;/font&gt;&lt;span style=&quot;font-size: 8px; background-color: transparent; color: light-dark(rgb(0, 0, 0), rgb(255, 255, 255));&quot;&gt;Cooldown&lt;/span&gt;&lt;/div&gt;" style="text;html=1;align=center;verticalAlign=middle;whiteSpace=wrap;rounded=0;" parent="1" vertex="1">
          <mxGeometry x="-15" y="1251" width="90" height="30" as="geometry" />
        </mxCell>
        <mxCell id="E4qFbeiB4ODEOkEXqFHY-12" value="&lt;div&gt;&lt;span style=&quot;font-size: 8px;&quot;&gt;Health bar&lt;/span&gt;&lt;/div&gt;" style="text;html=1;align=center;verticalAlign=middle;whiteSpace=wrap;rounded=0;" parent="1" vertex="1">
          <mxGeometry x="-15" y="1048" width="90" height="30" as="geometry" />
        </mxCell>
        <mxCell id="E4qFbeiB4ODEOkEXqFHY-19" value="" style="whiteSpace=wrap;html=1;aspect=fixed;" parent="1" vertex="1">
          <mxGeometry x="125" y="1077" width="23" height="23" as="geometry" />
        </mxCell>
        <mxCell id="E4qFbeiB4ODEOkEXqFHY-20" value="" style="whiteSpace=wrap;html=1;aspect=fixed;" parent="1" vertex="1">
          <mxGeometry x="158" y="1077" width="23" height="23" as="geometry" />
        </mxCell>
        <mxCell id="E4qFbeiB4ODEOkEXqFHY-21" value="" style="whiteSpace=wrap;html=1;aspect=fixed;" parent="1" vertex="1">
          <mxGeometry x="192" y="1077" width="23" height="23" as="geometry" />
        </mxCell>
        <mxCell id="E4qFbeiB4ODEOkEXqFHY-22" value="" style="shape=flexArrow;endArrow=classic;html=1;rounded=0;width=5.714285714285714;endSize=3.095238095238095;endWidth=11.564625850340136;" parent="1" edge="1">
          <mxGeometry width="50" height="50" relative="1" as="geometry">
            <mxPoint x="60" y="1091.8" as="sourcePoint" />
            <mxPoint x="110" y="1091.8" as="targetPoint" />
          </mxGeometry>
        </mxCell>
        <mxCell id="E4qFbeiB4ODEOkEXqFHY-23" value="&lt;span style=&quot;font-size: 8px;&quot;&gt;Level/Upgrades display&lt;/span&gt;" style="text;html=1;align=center;verticalAlign=middle;whiteSpace=wrap;rounded=0;" parent="1" vertex="1">
          <mxGeometry x="-35" y="1077" width="90" height="30" as="geometry" />
        </mxCell>
        <mxCell id="E4qFbeiB4ODEOkEXqFHY-24" value="" style="triangle;whiteSpace=wrap;html=1;rotation=-90;strokeColor=none;" parent="1" vertex="1">
          <mxGeometry x="137.20000000000005" y="1258.45" width="16.87" height="43" as="geometry" />
        </mxCell>
        <mxCell id="E4qFbeiB4ODEOkEXqFHY-25" value="&lt;div&gt;&lt;font style=&quot;font-size: 7px;&quot;&gt;player&lt;/font&gt;&lt;/div&gt;" style="shape=umlActor;verticalLabelPosition=bottom;verticalAlign=top;html=1;outlineConnect=0;rounded=0;" parent="1" vertex="1">
          <mxGeometry x="288.75" y="1157.5" width="12.5" height="25" as="geometry" />
        </mxCell>
        <mxCell id="q9dQFFDxmmPAy8vQ38pg-1" value="" style="whiteSpace=wrap;html=1;shape=mxgraph.basic.octagon2;align=center;verticalAlign=middle;dx=86.33;" parent="1" vertex="1">
          <mxGeometry x="-570" y="410" width="550" height="550" as="geometry" />
        </mxCell>
        <mxCell id="q9dQFFDxmmPAy8vQ38pg-2" value="BOSS" style="ellipse;whiteSpace=wrap;html=1;aspect=fixed;fillColor=light-dark(#FFFFFF,#FF0000);" parent="1" vertex="1">
          <mxGeometry x="-335" y="645" width="80" height="80" as="geometry" />
        </mxCell>
        <mxCell id="wr4I21qXE2OK-taXbtrC-1" value="On Update" style="rounded=0;whiteSpace=wrap;html=1;" vertex="1" parent="1">
          <mxGeometry x="-265" y="1410" width="120" height="40" as="geometry" />
        </mxCell>
        <mxCell id="wr4I21qXE2OK-taXbtrC-2" style="edgeStyle=none;curved=1;rounded=0;orthogonalLoop=1;jettySize=auto;html=1;exitX=0.5;exitY=1;exitDx=0;exitDy=0;fontSize=12;startSize=8;endSize=8;" edge="1" parent="1" source="wr4I21qXE2OK-taXbtrC-3" target="wr4I21qXE2OK-taXbtrC-7">
          <mxGeometry relative="1" as="geometry" />
        </mxCell>
        <mxCell id="wr4I21qXE2OK-taXbtrC-3" value="&lt;div&gt;&lt;span style=&quot;background-color: transparent; color: light-dark(rgb(0, 0, 0), rgb(255, 255, 255));&quot;&gt;When Movement key is pressed&lt;/span&gt;&lt;/div&gt;" style="rhombus;whiteSpace=wrap;html=1;" vertex="1" parent="1">
          <mxGeometry x="-620" y="1510" width="190" height="80" as="geometry" />
        </mxCell>
        <mxCell id="wr4I21qXE2OK-taXbtrC-4" value="" style="endArrow=none;html=1;rounded=0;fontSize=12;startSize=8;endSize=8;curved=1;" edge="1" parent="1">
          <mxGeometry width="50" height="50" relative="1" as="geometry">
            <mxPoint x="-205" y="1490" as="sourcePoint" />
            <mxPoint x="-205" y="1450" as="targetPoint" />
          </mxGeometry>
        </mxCell>
        <mxCell id="wr4I21qXE2OK-taXbtrC-5" value="" style="endArrow=none;html=1;rounded=0;fontSize=12;startSize=8;endSize=8;curved=1;" edge="1" parent="1">
          <mxGeometry width="50" height="50" relative="1" as="geometry">
            <mxPoint x="-205" y="1490" as="sourcePoint" />
            <mxPoint x="-525" y="1490" as="targetPoint" />
          </mxGeometry>
        </mxCell>
        <mxCell id="wr4I21qXE2OK-taXbtrC-6" value="" style="endArrow=classic;html=1;rounded=0;fontSize=12;startSize=8;endSize=8;curved=1;entryX=0.5;entryY=0;entryDx=0;entryDy=0;" edge="1" parent="1" target="wr4I21qXE2OK-taXbtrC-3">
          <mxGeometry width="50" height="50" relative="1" as="geometry">
            <mxPoint x="-525" y="1490" as="sourcePoint" />
            <mxPoint x="-575" y="1500" as="targetPoint" />
          </mxGeometry>
        </mxCell>
        <mxCell id="wr4I21qXE2OK-taXbtrC-7" value="Move the player in that direction" style="rounded=0;whiteSpace=wrap;html=1;" vertex="1" parent="1">
          <mxGeometry x="-585" y="1650" width="120" height="60" as="geometry" />
        </mxCell>
        <mxCell id="wr4I21qXE2OK-taXbtrC-8" value="" style="endArrow=classic;html=1;rounded=0;fontSize=12;startSize=8;endSize=8;curved=1;" edge="1" parent="1">
          <mxGeometry width="50" height="50" relative="1" as="geometry">
            <mxPoint x="-325" y="1490" as="sourcePoint" />
            <mxPoint x="-325" y="1510" as="targetPoint" />
          </mxGeometry>
        </mxCell>
        <mxCell id="wr4I21qXE2OK-taXbtrC-9" value="" style="edgeStyle=none;curved=1;rounded=0;orthogonalLoop=1;jettySize=auto;html=1;fontSize=12;startSize=8;endSize=8;" edge="1" parent="1" source="wr4I21qXE2OK-taXbtrC-10" target="wr4I21qXE2OK-taXbtrC-15">
          <mxGeometry relative="1" as="geometry" />
        </mxCell>
        <mxCell id="wr4I21qXE2OK-taXbtrC-10" value="When interact with weapon" style="rhombus;whiteSpace=wrap;html=1;" vertex="1" parent="1">
          <mxGeometry x="-205" y="1510" width="160" height="80" as="geometry" />
        </mxCell>
        <mxCell id="wr4I21qXE2OK-taXbtrC-11" value="" style="endArrow=none;html=1;rounded=0;fontSize=12;startSize=8;endSize=8;curved=1;" edge="1" parent="1">
          <mxGeometry width="50" height="50" relative="1" as="geometry">
            <mxPoint x="-205" y="1490" as="sourcePoint" />
            <mxPoint x="2180" y="1490" as="targetPoint" />
          </mxGeometry>
        </mxCell>
        <mxCell id="wr4I21qXE2OK-taXbtrC-12" value="" style="endArrow=classic;html=1;rounded=0;fontSize=12;startSize=8;endSize=8;curved=1;" edge="1" parent="1">
          <mxGeometry width="50" height="50" relative="1" as="geometry">
            <mxPoint x="-125.11000000000001" y="1490" as="sourcePoint" />
            <mxPoint x="-125.11000000000001" y="1510" as="targetPoint" />
          </mxGeometry>
        </mxCell>
        <mxCell id="wr4I21qXE2OK-taXbtrC-13" style="edgeStyle=orthogonalEdgeStyle;rounded=0;orthogonalLoop=1;jettySize=auto;html=1;exitX=1;exitY=0.5;exitDx=0;exitDy=0;" edge="1" parent="1">
          <mxGeometry relative="1" as="geometry">
            <mxPoint x="7.5" y="1680" as="targetPoint" />
            <mxPoint x="-72.5" y="1680" as="sourcePoint" />
          </mxGeometry>
        </mxCell>
        <mxCell id="wr4I21qXE2OK-taXbtrC-14" style="edgeStyle=orthogonalEdgeStyle;rounded=0;orthogonalLoop=1;jettySize=auto;html=1;exitX=0.5;exitY=1;exitDx=0;exitDy=0;" edge="1" parent="1" source="wr4I21qXE2OK-taXbtrC-15">
          <mxGeometry relative="1" as="geometry">
            <mxPoint x="-125" y="1770" as="targetPoint" />
          </mxGeometry>
        </mxCell>
        <mxCell id="wr4I21qXE2OK-taXbtrC-15" value="Do player have a weapon&lt;div&gt;equipped already&lt;/div&gt;" style="rhombus;whiteSpace=wrap;html=1;" vertex="1" parent="1">
          <mxGeometry x="-205" y="1640" width="160" height="80" as="geometry" />
        </mxCell>
        <mxCell id="wr4I21qXE2OK-taXbtrC-16" value="Equip Weapon&amp;nbsp;" style="rounded=0;whiteSpace=wrap;html=1;" vertex="1" parent="1">
          <mxGeometry x="7.5" y="1650" width="120" height="60" as="geometry" />
        </mxCell>
        <mxCell id="wr4I21qXE2OK-taXbtrC-17" value="Swap Weapons" style="rounded=0;whiteSpace=wrap;html=1;" vertex="1" parent="1">
          <mxGeometry x="-185" y="1770" width="120" height="60" as="geometry" />
        </mxCell>
        <mxCell id="wr4I21qXE2OK-taXbtrC-18" value="" style="endArrow=classic;html=1;rounded=0;fontSize=12;startSize=8;endSize=8;curved=1;" edge="1" parent="1">
          <mxGeometry width="50" height="50" relative="1" as="geometry">
            <mxPoint x="264.6" y="1490" as="sourcePoint" />
            <mxPoint x="264.6" y="1510" as="targetPoint" />
          </mxGeometry>
        </mxCell>
        <mxCell id="wr4I21qXE2OK-taXbtrC-19" style="edgeStyle=orthogonalEdgeStyle;rounded=0;orthogonalLoop=1;jettySize=auto;html=1;exitX=0.5;exitY=1;exitDx=0;exitDy=0;entryX=0.5;entryY=0;entryDx=0;entryDy=0;" edge="1" parent="1" source="wr4I21qXE2OK-taXbtrC-20">
          <mxGeometry relative="1" as="geometry">
            <mxPoint x="265" y="1650" as="targetPoint" />
          </mxGeometry>
        </mxCell>
        <mxCell id="wr4I21qXE2OK-taXbtrC-20" value="When Attack key is pressed" style="rhombus;whiteSpace=wrap;html=1;" vertex="1" parent="1">
          <mxGeometry x="195" y="1510" width="140" height="80" as="geometry" />
        </mxCell>
        <mxCell id="wr4I21qXE2OK-taXbtrC-21" style="edgeStyle=orthogonalEdgeStyle;rounded=0;orthogonalLoop=1;jettySize=auto;html=1;exitX=0.5;exitY=1;exitDx=0;exitDy=0;" edge="1" parent="1" source="wr4I21qXE2OK-taXbtrC-23">
          <mxGeometry relative="1" as="geometry">
            <mxPoint x="155" y="1800" as="targetPoint" />
            <mxPoint x="265" y="1770" as="sourcePoint" />
          </mxGeometry>
        </mxCell>
        <mxCell id="wr4I21qXE2OK-taXbtrC-22" value="" style="edgeStyle=orthogonalEdgeStyle;rounded=0;orthogonalLoop=1;jettySize=auto;html=1;" edge="1" parent="1" source="wr4I21qXE2OK-taXbtrC-23" target="wr4I21qXE2OK-taXbtrC-25">
          <mxGeometry relative="1" as="geometry" />
        </mxCell>
        <mxCell id="wr4I21qXE2OK-taXbtrC-23" value="Is equipped weapon type&lt;div&gt;&amp;nbsp;projectile or melee&lt;/div&gt;" style="rhombus;whiteSpace=wrap;html=1;rounded=0;" vertex="1" parent="1">
          <mxGeometry x="175" y="1650" width="180" height="80" as="geometry" />
        </mxCell>
        <mxCell id="wr4I21qXE2OK-taXbtrC-24" value="" style="edgeStyle=orthogonalEdgeStyle;rounded=0;orthogonalLoop=1;jettySize=auto;html=1;" edge="1" parent="1" source="wr4I21qXE2OK-taXbtrC-25" target="wr4I21qXE2OK-taXbtrC-34">
          <mxGeometry relative="1" as="geometry" />
        </mxCell>
        <mxCell id="wr4I21qXE2OK-taXbtrC-25" value="If melee, create a slashing object with damage stats from weapon, when enemy touch&amp;nbsp;" style="whiteSpace=wrap;html=1;rounded=0;" vertex="1" parent="1">
          <mxGeometry x="298" y="1800" width="170" height="50" as="geometry" />
        </mxCell>
        <mxCell id="wr4I21qXE2OK-taXbtrC-26" value="" style="edgeStyle=orthogonalEdgeStyle;rounded=0;orthogonalLoop=1;jettySize=auto;html=1;" edge="1" parent="1" source="wr4I21qXE2OK-taXbtrC-27" target="wr4I21qXE2OK-taXbtrC-31">
          <mxGeometry relative="1" as="geometry" />
        </mxCell>
        <mxCell id="wr4I21qXE2OK-taXbtrC-27" value="If Projectile, create a projectile with speed stats and damage stats from weapon&amp;nbsp;" style="rounded=0;whiteSpace=wrap;html=1;" vertex="1" parent="1">
          <mxGeometry x="95" y="1800" width="120" height="60" as="geometry" />
        </mxCell>
        <mxCell id="wr4I21qXE2OK-taXbtrC-28" style="edgeStyle=orthogonalEdgeStyle;rounded=0;orthogonalLoop=1;jettySize=auto;html=1;exitX=0.5;exitY=1;exitDx=0;exitDy=0;" edge="1" parent="1" source="wr4I21qXE2OK-taXbtrC-25" target="wr4I21qXE2OK-taXbtrC-25">
          <mxGeometry relative="1" as="geometry" />
        </mxCell>
        <mxCell id="wr4I21qXE2OK-taXbtrC-29" value="" style="edgeStyle=orthogonalEdgeStyle;rounded=0;orthogonalLoop=1;jettySize=auto;html=1;" edge="1" parent="1" source="wr4I21qXE2OK-taXbtrC-31" target="wr4I21qXE2OK-taXbtrC-32">
          <mxGeometry relative="1" as="geometry" />
        </mxCell>
        <mxCell id="wr4I21qXE2OK-taXbtrC-30" value="" style="edgeStyle=orthogonalEdgeStyle;rounded=0;orthogonalLoop=1;jettySize=auto;html=1;exitX=1;exitY=0.5;exitDx=0;exitDy=0;" edge="1" parent="1" source="wr4I21qXE2OK-taXbtrC-31" target="wr4I21qXE2OK-taXbtrC-33">
          <mxGeometry relative="1" as="geometry" />
        </mxCell>
        <mxCell id="wr4I21qXE2OK-taXbtrC-31" value="Did the projectile hit&lt;div&gt;the enemy before a set time&lt;/div&gt;" style="rhombus;whiteSpace=wrap;html=1;rounded=0;" vertex="1" parent="1">
          <mxGeometry x="55" y="1890" width="200" height="90" as="geometry" />
        </mxCell>
        <mxCell id="wr4I21qXE2OK-taXbtrC-32" value="Delt damage to enemy health point. Delete projectile" style="whiteSpace=wrap;html=1;rounded=0;" vertex="1" parent="1">
          <mxGeometry x="94" y="2020" width="120" height="60" as="geometry" />
        </mxCell>
        <mxCell id="wr4I21qXE2OK-taXbtrC-33" value="Delete Projectile" style="whiteSpace=wrap;html=1;rounded=0;" vertex="1" parent="1">
          <mxGeometry x="248.75" y="2000" width="120" height="60" as="geometry" />
        </mxCell>
        <mxCell id="wr4I21qXE2OK-taXbtrC-34" value="Deal damage to enemy according with weapon damage stats" style="whiteSpace=wrap;html=1;rounded=0;" vertex="1" parent="1">
          <mxGeometry x="405" y="1950" width="120" height="60" as="geometry" />
        </mxCell>
        <mxCell id="wr4I21qXE2OK-taXbtrC-35" value="" style="endArrow=classic;html=1;rounded=0;fontSize=12;startSize=8;endSize=8;curved=1;" edge="1" parent="1">
          <mxGeometry width="50" height="50" relative="1" as="geometry">
            <mxPoint x="546.4100000000001" y="1490" as="sourcePoint" />
            <mxPoint x="546.4100000000001" y="1510" as="targetPoint" />
          </mxGeometry>
        </mxCell>
        <mxCell id="wr4I21qXE2OK-taXbtrC-36" value="" style="edgeStyle=orthogonalEdgeStyle;rounded=0;orthogonalLoop=1;jettySize=auto;html=1;" edge="1" parent="1" source="wr4I21qXE2OK-taXbtrC-37" target="wr4I21qXE2OK-taXbtrC-38">
          <mxGeometry relative="1" as="geometry" />
        </mxCell>
        <mxCell id="wr4I21qXE2OK-taXbtrC-37" value="When player collides with enemy attack" style="rhombus;whiteSpace=wrap;html=1;" vertex="1" parent="1">
          <mxGeometry x="425" y="1510" width="245" height="90" as="geometry" />
        </mxCell>
        <mxCell id="wr4I21qXE2OK-taXbtrC-38" value="Reduce Player&#39;s HP based on attack damage" style="whiteSpace=wrap;html=1;" vertex="1" parent="1">
          <mxGeometry x="487" y="1650" width="120" height="60" as="geometry" />
        </mxCell>
        <mxCell id="wr4I21qXE2OK-taXbtrC-39" value="" style="endArrow=classic;html=1;rounded=0;fontSize=12;startSize=8;endSize=8;curved=1;" edge="1" parent="1">
          <mxGeometry width="50" height="50" relative="1" as="geometry">
            <mxPoint x="836.4100000000001" y="1490" as="sourcePoint" />
            <mxPoint x="836.4100000000001" y="1510" as="targetPoint" />
          </mxGeometry>
        </mxCell>
        <mxCell id="wr4I21qXE2OK-taXbtrC-40" value="" style="edgeStyle=orthogonalEdgeStyle;rounded=0;orthogonalLoop=1;jettySize=auto;html=1;" edge="1" parent="1" source="wr4I21qXE2OK-taXbtrC-41" target="wr4I21qXE2OK-taXbtrC-43">
          <mxGeometry relative="1" as="geometry" />
        </mxCell>
        <mxCell id="wr4I21qXE2OK-taXbtrC-41" value="When Player HP reach 0" style="rhombus;whiteSpace=wrap;html=1;" vertex="1" parent="1">
          <mxGeometry x="715" y="1510" width="245" height="90" as="geometry" />
        </mxCell>
        <mxCell id="wr4I21qXE2OK-taXbtrC-42" value="" style="edgeStyle=orthogonalEdgeStyle;rounded=0;orthogonalLoop=1;jettySize=auto;html=1;" edge="1" parent="1" source="wr4I21qXE2OK-taXbtrC-43" target="wr4I21qXE2OK-taXbtrC-44">
          <mxGeometry relative="1" as="geometry" />
        </mxCell>
        <mxCell id="wr4I21qXE2OK-taXbtrC-43" value="Play death animation" style="whiteSpace=wrap;html=1;" vertex="1" parent="1">
          <mxGeometry x="777.5" y="1650" width="120" height="60" as="geometry" />
        </mxCell>
        <mxCell id="wr4I21qXE2OK-taXbtrC-44" value="Bring player to most recent checkpoint(spawn point if there is none)" style="whiteSpace=wrap;html=1;" vertex="1" parent="1">
          <mxGeometry x="761.25" y="1790" width="152.5" height="60" as="geometry" />
        </mxCell>
        <mxCell id="wr4I21qXE2OK-taXbtrC-45" value="" style="endArrow=classic;html=1;rounded=0;fontSize=12;startSize=8;endSize=8;curved=1;" edge="1" parent="1">
          <mxGeometry width="50" height="50" relative="1" as="geometry">
            <mxPoint x="1116.41" y="1490" as="sourcePoint" />
            <mxPoint x="1116.41" y="1510" as="targetPoint" />
          </mxGeometry>
        </mxCell>
        <mxCell id="wr4I21qXE2OK-taXbtrC-46" value="" style="edgeStyle=orthogonalEdgeStyle;rounded=0;orthogonalLoop=1;jettySize=auto;html=1;" edge="1" parent="1" source="wr4I21qXE2OK-taXbtrC-47" target="wr4I21qXE2OK-taXbtrC-48">
          <mxGeometry relative="1" as="geometry" />
        </mxCell>
        <mxCell id="wr4I21qXE2OK-taXbtrC-47" value="When player touch&lt;div&gt;end checkpoint&lt;/div&gt;" style="rhombus;whiteSpace=wrap;html=1;" vertex="1" parent="1">
          <mxGeometry x="995" y="1510" width="245" height="90" as="geometry" />
        </mxCell>
        <mxCell id="wr4I21qXE2OK-taXbtrC-48" value="Bring to next level" style="whiteSpace=wrap;html=1;" vertex="1" parent="1">
          <mxGeometry x="1057.5" y="1650" width="120" height="60" as="geometry" />
        </mxCell>
        <mxCell id="wr4I21qXE2OK-taXbtrC-49" value="" style="endArrow=classic;html=1;rounded=0;fontSize=12;startSize=8;endSize=8;curved=1;" edge="1" parent="1">
          <mxGeometry width="50" height="50" relative="1" as="geometry">
            <mxPoint x="1421.41" y="1490" as="sourcePoint" />
            <mxPoint x="1421.41" y="1510" as="targetPoint" />
          </mxGeometry>
        </mxCell>
        <mxCell id="wr4I21qXE2OK-taXbtrC-50" value="" style="edgeStyle=orthogonalEdgeStyle;rounded=0;orthogonalLoop=1;jettySize=auto;html=1;" edge="1" parent="1" source="wr4I21qXE2OK-taXbtrC-52" target="wr4I21qXE2OK-taXbtrC-53">
          <mxGeometry relative="1" as="geometry" />
        </mxCell>
        <mxCell id="wr4I21qXE2OK-taXbtrC-51" value="" style="edgeStyle=orthogonalEdgeStyle;rounded=0;orthogonalLoop=1;jettySize=auto;html=1;" edge="1" parent="1" source="wr4I21qXE2OK-taXbtrC-52" target="wr4I21qXE2OK-taXbtrC-54">
          <mxGeometry relative="1" as="geometry" />
        </mxCell>
        <mxCell id="wr4I21qXE2OK-taXbtrC-52" value="When an enemy is defeated" style="rhombus;whiteSpace=wrap;html=1;" vertex="1" parent="1">
          <mxGeometry x="1300" y="1510" width="245" height="90" as="geometry" />
        </mxCell>
        <mxCell id="wr4I21qXE2OK-taXbtrC-53" value="Give player 100 coins" style="whiteSpace=wrap;html=1;" vertex="1" parent="1">
          <mxGeometry x="1220" y="1720" width="120" height="60" as="geometry" />
        </mxCell>
        <mxCell id="wr4I21qXE2OK-taXbtrC-54" value="Give player 250 coins" style="whiteSpace=wrap;html=1;" vertex="1" parent="1">
          <mxGeometry x="1510" y="1720" width="120" height="60" as="geometry" />
        </mxCell>
        <mxCell id="wr4I21qXE2OK-taXbtrC-55" value="Normal" style="text;html=1;align=center;verticalAlign=middle;whiteSpace=wrap;rounded=0;" vertex="1" parent="1">
          <mxGeometry x="1270" y="1675" width="60" height="30" as="geometry" />
        </mxCell>
        <mxCell id="wr4I21qXE2OK-taXbtrC-56" value="Boss" style="text;html=1;align=center;verticalAlign=middle;whiteSpace=wrap;rounded=0;" vertex="1" parent="1">
          <mxGeometry x="1560" y="1675" width="60" height="30" as="geometry" />
        </mxCell>
        <mxCell id="wr4I21qXE2OK-taXbtrC-57" value="" style="endArrow=classic;html=1;rounded=0;fontSize=12;startSize=8;endSize=8;curved=1;" edge="1" parent="1">
          <mxGeometry width="50" height="50" relative="1" as="geometry">
            <mxPoint x="1801.4099999999999" y="1490" as="sourcePoint" />
            <mxPoint x="1801.4099999999999" y="1510" as="targetPoint" />
          </mxGeometry>
        </mxCell>
        <mxCell id="wr4I21qXE2OK-taXbtrC-58" value="" style="edgeStyle=orthogonalEdgeStyle;rounded=0;orthogonalLoop=1;jettySize=auto;html=1;" edge="1" parent="1" source="wr4I21qXE2OK-taXbtrC-59" target="wr4I21qXE2OK-taXbtrC-61">
          <mxGeometry relative="1" as="geometry" />
        </mxCell>
        <mxCell id="wr4I21qXE2OK-taXbtrC-59" value="When player press RMB (Dodge)" style="rhombus;whiteSpace=wrap;html=1;" vertex="1" parent="1">
          <mxGeometry x="1680" y="1510" width="245" height="90" as="geometry" />
        </mxCell>
        <mxCell id="wr4I21qXE2OK-taXbtrC-60" value="" style="edgeStyle=orthogonalEdgeStyle;rounded=0;orthogonalLoop=1;jettySize=auto;html=1;" edge="1" parent="1" source="wr4I21qXE2OK-taXbtrC-61" target="wr4I21qXE2OK-taXbtrC-147">
          <mxGeometry relative="1" as="geometry" />
        </mxCell>
        <mxCell id="wr4I21qXE2OK-taXbtrC-61" value="Players perform a dash towards the direction they are currently facing" style="whiteSpace=wrap;html=1;" vertex="1" parent="1">
          <mxGeometry x="1742.5" y="1640" width="120" height="60" as="geometry" />
        </mxCell>
        <mxCell id="wr4I21qXE2OK-taXbtrC-62" value="" style="endArrow=classic;html=1;rounded=0;fontSize=12;startSize=8;endSize=8;curved=1;" edge="1" parent="1">
          <mxGeometry width="50" height="50" relative="1" as="geometry">
            <mxPoint x="2179.41" y="1490" as="sourcePoint" />
            <mxPoint x="2179.41" y="1510" as="targetPoint" />
          </mxGeometry>
        </mxCell>
        <mxCell id="wr4I21qXE2OK-taXbtrC-63" value="" style="edgeStyle=orthogonalEdgeStyle;rounded=0;orthogonalLoop=1;jettySize=auto;html=1;" edge="1" parent="1" source="wr4I21qXE2OK-taXbtrC-64" target="wr4I21qXE2OK-taXbtrC-68">
          <mxGeometry relative="1" as="geometry" />
        </mxCell>
        <mxCell id="wr4I21qXE2OK-taXbtrC-64" value="When player press ability weapon" style="rhombus;whiteSpace=wrap;html=1;" vertex="1" parent="1">
          <mxGeometry x="2058" y="1510" width="245" height="90" as="geometry" />
        </mxCell>
        <mxCell id="wr4I21qXE2OK-taXbtrC-65" value="" style="edgeStyle=orthogonalEdgeStyle;rounded=0;orthogonalLoop=1;jettySize=auto;html=1;" edge="1" parent="1" source="wr4I21qXE2OK-taXbtrC-68" target="wr4I21qXE2OK-taXbtrC-70">
          <mxGeometry relative="1" as="geometry" />
        </mxCell>
        <mxCell id="wr4I21qXE2OK-taXbtrC-66" value="" style="edgeStyle=orthogonalEdgeStyle;rounded=0;orthogonalLoop=1;jettySize=auto;html=1;" edge="1" parent="1" source="wr4I21qXE2OK-taXbtrC-68" target="wr4I21qXE2OK-taXbtrC-72">
          <mxGeometry relative="1" as="geometry" />
        </mxCell>
        <mxCell id="wr4I21qXE2OK-taXbtrC-67" value="" style="edgeStyle=orthogonalEdgeStyle;rounded=0;orthogonalLoop=1;jettySize=auto;html=1;" edge="1" parent="1" source="wr4I21qXE2OK-taXbtrC-68" target="wr4I21qXE2OK-taXbtrC-74">
          <mxGeometry relative="1" as="geometry" />
        </mxCell>
        <mxCell id="wr4I21qXE2OK-taXbtrC-68" value="Check current weapon type" style="rhombus;whiteSpace=wrap;html=1;" vertex="1" parent="1">
          <mxGeometry x="2058" y="1660" width="245" height="91" as="geometry" />
        </mxCell>
        <mxCell id="wr4I21qXE2OK-taXbtrC-69" value="" style="edgeStyle=orthogonalEdgeStyle;rounded=0;orthogonalLoop=1;jettySize=auto;html=1;" edge="1" parent="1" source="wr4I21qXE2OK-taXbtrC-70" target="wr4I21qXE2OK-taXbtrC-79">
          <mxGeometry relative="1" as="geometry" />
        </mxCell>
        <mxCell id="wr4I21qXE2OK-taXbtrC-70" value="Increase fire speed for X amount of sec" style="whiteSpace=wrap;html=1;" vertex="1" parent="1">
          <mxGeometry x="1960" y="1890" width="120" height="60" as="geometry" />
        </mxCell>
        <mxCell id="wr4I21qXE2OK-taXbtrC-71" value="" style="edgeStyle=orthogonalEdgeStyle;rounded=0;orthogonalLoop=1;jettySize=auto;html=1;" edge="1" parent="1" source="wr4I21qXE2OK-taXbtrC-72">
          <mxGeometry relative="1" as="geometry">
            <mxPoint x="2180.5" y="2030" as="targetPoint" />
          </mxGeometry>
        </mxCell>
        <mxCell id="wr4I21qXE2OK-taXbtrC-72" value="Reduce reload speed for X amount of sec" style="whiteSpace=wrap;html=1;" vertex="1" parent="1">
          <mxGeometry x="2120.5" y="1890" width="120" height="60" as="geometry" />
        </mxCell>
        <mxCell id="wr4I21qXE2OK-taXbtrC-73" value="" style="edgeStyle=orthogonalEdgeStyle;rounded=0;orthogonalLoop=1;jettySize=auto;html=1;" edge="1" parent="1" source="wr4I21qXE2OK-taXbtrC-74">
          <mxGeometry relative="1" as="geometry">
            <mxPoint x="2340.000000000001" y="2030" as="targetPoint" />
          </mxGeometry>
        </mxCell>
        <mxCell id="wr4I21qXE2OK-taXbtrC-74" value="Increase damage and range of weapon for X amount of sec" style="whiteSpace=wrap;html=1;" vertex="1" parent="1">
          <mxGeometry x="2280" y="1890" width="120" height="60" as="geometry" />
        </mxCell>
        <mxCell id="wr4I21qXE2OK-taXbtrC-75" value="Handgun" style="text;html=1;align=center;verticalAlign=middle;whiteSpace=wrap;rounded=0;" vertex="1" parent="1">
          <mxGeometry x="2020" y="1840" width="60" height="30" as="geometry" />
        </mxCell>
        <mxCell id="wr4I21qXE2OK-taXbtrC-76" value="AR" style="text;html=1;align=center;verticalAlign=middle;whiteSpace=wrap;rounded=0;" vertex="1" parent="1">
          <mxGeometry x="2165" y="1840" width="60" height="30" as="geometry" />
        </mxCell>
        <mxCell id="wr4I21qXE2OK-taXbtrC-77" value="Melee" style="text;html=1;align=center;verticalAlign=middle;whiteSpace=wrap;rounded=0;" vertex="1" parent="1">
          <mxGeometry x="2330" y="1840" width="60" height="30" as="geometry" />
        </mxCell>
        <mxCell id="wr4I21qXE2OK-taXbtrC-78" value="" style="edgeStyle=orthogonalEdgeStyle;rounded=0;orthogonalLoop=1;jettySize=auto;html=1;" edge="1" parent="1" source="wr4I21qXE2OK-taXbtrC-79" target="wr4I21qXE2OK-taXbtrC-148">
          <mxGeometry relative="1" as="geometry" />
        </mxCell>
        <mxCell id="wr4I21qXE2OK-taXbtrC-79" value="Start Cooldown Timer for X amount of sec" style="whiteSpace=wrap;html=1;" vertex="1" parent="1">
          <mxGeometry x="1960" y="2030" width="120" height="60" as="geometry" />
        </mxCell>
        <mxCell id="wr4I21qXE2OK-taXbtrC-80" value="Start Cooldown Timer for X amount of sec" style="whiteSpace=wrap;html=1;" vertex="1" parent="1">
          <mxGeometry x="2120.5" y="2030" width="120" height="60" as="geometry" />
        </mxCell>
        <mxCell id="wr4I21qXE2OK-taXbtrC-81" value="Start Cooldown Timer for X amount of sec" style="whiteSpace=wrap;html=1;" vertex="1" parent="1">
          <mxGeometry x="2280" y="2030" width="120" height="60" as="geometry" />
        </mxCell>
        <mxCell id="wr4I21qXE2OK-taXbtrC-82" value="" style="endArrow=none;html=1;rounded=0;fontSize=12;startSize=8;endSize=8;curved=1;" edge="1" parent="1">
          <mxGeometry width="50" height="50" relative="1" as="geometry">
            <mxPoint x="-205" y="1489" as="sourcePoint" />
            <mxPoint x="2783" y="1489" as="targetPoint" />
          </mxGeometry>
        </mxCell>
        <mxCell id="wr4I21qXE2OK-taXbtrC-83" value="" style="endArrow=none;html=1;rounded=0;fontSize=12;startSize=8;endSize=8;curved=1;" edge="1" parent="1">
          <mxGeometry width="50" height="50" relative="1" as="geometry">
            <mxPoint x="-205" y="1490" as="sourcePoint" />
            <mxPoint x="3849.7931034482754" y="1489" as="targetPoint" />
          </mxGeometry>
        </mxCell>
        <mxCell id="wr4I21qXE2OK-taXbtrC-84" value="" style="endArrow=classic;html=1;rounded=0;fontSize=12;startSize=8;endSize=8;curved=1;" edge="1" parent="1">
          <mxGeometry width="50" height="50" relative="1" as="geometry">
            <mxPoint x="2560.41" y="1490" as="sourcePoint" />
            <mxPoint x="2560.41" y="1510" as="targetPoint" />
          </mxGeometry>
        </mxCell>
        <mxCell id="wr4I21qXE2OK-taXbtrC-85" value="" style="edgeStyle=orthogonalEdgeStyle;rounded=0;orthogonalLoop=1;jettySize=auto;html=1;" edge="1" parent="1" source="wr4I21qXE2OK-taXbtrC-86" target="wr4I21qXE2OK-taXbtrC-88">
          <mxGeometry relative="1" as="geometry" />
        </mxCell>
        <mxCell id="wr4I21qXE2OK-taXbtrC-86" value="When player enters a new room" style="rhombus;whiteSpace=wrap;html=1;" vertex="1" parent="1">
          <mxGeometry x="2438" y="1510" width="245" height="90" as="geometry" />
        </mxCell>
        <mxCell id="wr4I21qXE2OK-taXbtrC-87" value="" style="edgeStyle=orthogonalEdgeStyle;rounded=0;orthogonalLoop=1;jettySize=auto;html=1;" edge="1" parent="1" source="wr4I21qXE2OK-taXbtrC-88" target="wr4I21qXE2OK-taXbtrC-90">
          <mxGeometry relative="1" as="geometry" />
        </mxCell>
        <mxCell id="wr4I21qXE2OK-taXbtrC-88" value="Force player to be in that room until all enemies are eliminated" style="whiteSpace=wrap;html=1;" vertex="1" parent="1">
          <mxGeometry x="2500.5" y="1620" width="120" height="60" as="geometry" />
        </mxCell>
        <mxCell id="wr4I21qXE2OK-taXbtrC-89" value="" style="edgeStyle=orthogonalEdgeStyle;rounded=0;orthogonalLoop=1;jettySize=auto;html=1;" edge="1" parent="1" source="wr4I21qXE2OK-taXbtrC-90" target="wr4I21qXE2OK-taXbtrC-123">
          <mxGeometry relative="1" as="geometry" />
        </mxCell>
        <mxCell id="wr4I21qXE2OK-taXbtrC-90" value="Door to the next room are unable to unlock till the prior requirements are fufilled" style="whiteSpace=wrap;html=1;" vertex="1" parent="1">
          <mxGeometry x="2495.25" y="1705" width="130.5" height="80" as="geometry" />
        </mxCell>
        <mxCell id="wr4I21qXE2OK-taXbtrC-91" value="" style="endArrow=classic;html=1;rounded=0;fontSize=12;startSize=8;endSize=8;curved=1;" edge="1" parent="1">
          <mxGeometry width="50" height="50" relative="1" as="geometry">
            <mxPoint x="2879.31" y="1490" as="sourcePoint" />
            <mxPoint x="2879.31" y="1510" as="targetPoint" />
          </mxGeometry>
        </mxCell>
        <mxCell id="wr4I21qXE2OK-taXbtrC-92" value="" style="edgeStyle=orthogonalEdgeStyle;rounded=0;orthogonalLoop=1;jettySize=auto;html=1;" edge="1" parent="1" source="wr4I21qXE2OK-taXbtrC-93" target="wr4I21qXE2OK-taXbtrC-95">
          <mxGeometry relative="1" as="geometry" />
        </mxCell>
        <mxCell id="wr4I21qXE2OK-taXbtrC-93" value="When the Escape key is pressed" style="rhombus;whiteSpace=wrap;html=1;" vertex="1" parent="1">
          <mxGeometry x="2757" y="1510" width="245" height="90" as="geometry" />
        </mxCell>
        <mxCell id="wr4I21qXE2OK-taXbtrC-94" value="" style="edgeStyle=orthogonalEdgeStyle;rounded=0;orthogonalLoop=1;jettySize=auto;html=1;" edge="1" parent="1" source="wr4I21qXE2OK-taXbtrC-95" target="wr4I21qXE2OK-taXbtrC-102">
          <mxGeometry relative="1" as="geometry" />
        </mxCell>
        <mxCell id="wr4I21qXE2OK-taXbtrC-95" value="freeze game&amp;nbsp;&amp;nbsp;" style="whiteSpace=wrap;html=1;" vertex="1" parent="1">
          <mxGeometry x="2819.5" y="1640" width="120" height="60" as="geometry" />
        </mxCell>
        <mxCell id="wr4I21qXE2OK-taXbtrC-96" value="" style="edgeStyle=orthogonalEdgeStyle;rounded=0;orthogonalLoop=1;jettySize=auto;html=1;" edge="1" parent="1" source="wr4I21qXE2OK-taXbtrC-102">
          <mxGeometry relative="1" as="geometry">
            <mxPoint x="2659" y="1877.0043887147335" as="targetPoint" />
          </mxGeometry>
        </mxCell>
        <mxCell id="wr4I21qXE2OK-taXbtrC-97" value="" style="edgeStyle=orthogonalEdgeStyle;rounded=0;orthogonalLoop=1;jettySize=auto;html=1;" edge="1" parent="1" source="wr4I21qXE2OK-taXbtrC-102" target="wr4I21qXE2OK-taXbtrC-105">
          <mxGeometry relative="1" as="geometry" />
        </mxCell>
        <mxCell id="wr4I21qXE2OK-taXbtrC-98" value="" style="edgeStyle=orthogonalEdgeStyle;rounded=0;orthogonalLoop=1;jettySize=auto;html=1;" edge="1" parent="1" source="wr4I21qXE2OK-taXbtrC-102" target="wr4I21qXE2OK-taXbtrC-105">
          <mxGeometry relative="1" as="geometry" />
        </mxCell>
        <mxCell id="wr4I21qXE2OK-taXbtrC-99" value="" style="edgeStyle=orthogonalEdgeStyle;rounded=0;orthogonalLoop=1;jettySize=auto;html=1;" edge="1" parent="1" source="wr4I21qXE2OK-taXbtrC-102" target="wr4I21qXE2OK-taXbtrC-105">
          <mxGeometry relative="1" as="geometry" />
        </mxCell>
        <mxCell id="wr4I21qXE2OK-taXbtrC-100" value="" style="edgeStyle=orthogonalEdgeStyle;rounded=0;orthogonalLoop=1;jettySize=auto;html=1;" edge="1" parent="1" source="wr4I21qXE2OK-taXbtrC-102" target="wr4I21qXE2OK-taXbtrC-105">
          <mxGeometry relative="1" as="geometry" />
        </mxCell>
        <mxCell id="wr4I21qXE2OK-taXbtrC-101" value="" style="edgeStyle=orthogonalEdgeStyle;rounded=0;orthogonalLoop=1;jettySize=auto;html=1;" edge="1" parent="1" source="wr4I21qXE2OK-taXbtrC-102" target="wr4I21qXE2OK-taXbtrC-107">
          <mxGeometry relative="1" as="geometry" />
        </mxCell>
        <mxCell id="wr4I21qXE2OK-taXbtrC-102" value="Display pause screen&lt;div&gt;with option&amp;nbsp;&lt;/div&gt;" style="whiteSpace=wrap;html=1;" vertex="1" parent="1">
          <mxGeometry x="2788.74" y="1748" width="120" height="60" as="geometry" />
        </mxCell>
        <mxCell id="wr4I21qXE2OK-taXbtrC-103" value="" style="edgeStyle=orthogonalEdgeStyle;rounded=0;orthogonalLoop=1;jettySize=auto;html=1;" edge="1" parent="1" source="wr4I21qXE2OK-taXbtrC-104" target="wr4I21qXE2OK-taXbtrC-140">
          <mxGeometry relative="1" as="geometry" />
        </mxCell>
        <mxCell id="wr4I21qXE2OK-taXbtrC-104" value="When Player pressed&lt;div&gt;&amp;nbsp;resume button or ESC&amp;nbsp;&lt;/div&gt;" style="rhombus;whiteSpace=wrap;html=1;" vertex="1" parent="1">
          <mxGeometry x="2579" y="1877" width="159.5" height="70" as="geometry" />
        </mxCell>
        <mxCell id="wr4I21qXE2OK-taXbtrC-105" value="When player&amp;nbsp;&lt;div&gt;pressed quit&amp;nbsp;&lt;/div&gt;" style="rhombus;whiteSpace=wrap;html=1;" vertex="1" parent="1">
          <mxGeometry x="2954.24" y="1877" width="140.5" height="80" as="geometry" />
        </mxCell>
        <mxCell id="wr4I21qXE2OK-taXbtrC-106" value="" style="edgeStyle=orthogonalEdgeStyle;rounded=0;orthogonalLoop=1;jettySize=auto;html=1;" edge="1" parent="1" source="wr4I21qXE2OK-taXbtrC-107" target="wr4I21qXE2OK-taXbtrC-110">
          <mxGeometry relative="1" as="geometry" />
        </mxCell>
        <mxCell id="wr4I21qXE2OK-taXbtrC-107" value="When player&lt;div&gt;pressed restart&lt;/div&gt;" style="rhombus;whiteSpace=wrap;html=1;" vertex="1" parent="1">
          <mxGeometry x="2783.49" y="1877" width="130.5" height="80" as="geometry" />
        </mxCell>
        <mxCell id="wr4I21qXE2OK-taXbtrC-108" value="" style="edgeStyle=orthogonalEdgeStyle;rounded=0;orthogonalLoop=1;jettySize=auto;html=1;" edge="1" parent="1" source="wr4I21qXE2OK-taXbtrC-110" target="wr4I21qXE2OK-taXbtrC-111">
          <mxGeometry relative="1" as="geometry" />
        </mxCell>
        <mxCell id="wr4I21qXE2OK-taXbtrC-109" value="" style="edgeStyle=orthogonalEdgeStyle;rounded=0;orthogonalLoop=1;jettySize=auto;html=1;exitX=0.559;exitY=0.89;exitDx=0;exitDy=0;exitPerimeter=0;" edge="1" parent="1" source="wr4I21qXE2OK-taXbtrC-110" target="wr4I21qXE2OK-taXbtrC-112">
          <mxGeometry relative="1" as="geometry">
            <mxPoint x="2839.238461538461" y="2106.986422045387" as="sourcePoint" />
            <Array as="points">
              <mxPoint x="2849.24" y="2058" />
              <mxPoint x="2849.24" y="2107" />
              <mxPoint x="2930.24" y="2107" />
            </Array>
          </mxGeometry>
        </mxCell>
        <mxCell id="wr4I21qXE2OK-taXbtrC-110" value="Confirmation&lt;div&gt;for restart&lt;/div&gt;" style="rhombus;whiteSpace=wrap;html=1;" vertex="1" parent="1">
          <mxGeometry x="2783.49" y="1987" width="130.5" height="80" as="geometry" />
        </mxCell>
        <mxCell id="wr4I21qXE2OK-taXbtrC-111" value="Restart to the original versio" style="whiteSpace=wrap;html=1;" vertex="1" parent="1">
          <mxGeometry x="2789.24" y="2277" width="120" height="60" as="geometry" />
        </mxCell>
        <mxCell id="wr4I21qXE2OK-taXbtrC-112" value="Return to pause menu" style="whiteSpace=wrap;html=1;" vertex="1" parent="1">
          <mxGeometry x="2869.24" y="2146.9999999999995" width="120" height="60" as="geometry" />
        </mxCell>
        <mxCell id="wr4I21qXE2OK-taXbtrC-113" value="Yes" style="text;html=1;align=center;verticalAlign=middle;whiteSpace=wrap;rounded=0;" vertex="1" parent="1">
          <mxGeometry x="2779.24" y="2087" width="60" height="30" as="geometry" />
        </mxCell>
        <mxCell id="wr4I21qXE2OK-taXbtrC-114" value="No" style="text;html=1;align=center;verticalAlign=middle;resizable=0;points=[];autosize=1;strokeColor=none;fillColor=none;" vertex="1" parent="1">
          <mxGeometry x="2869.24" y="2085" width="40" height="30" as="geometry" />
        </mxCell>
        <mxCell id="wr4I21qXE2OK-taXbtrC-115" value="" style="edgeStyle=orthogonalEdgeStyle;rounded=0;orthogonalLoop=1;jettySize=auto;html=1;" edge="1" parent="1" target="wr4I21qXE2OK-taXbtrC-118">
          <mxGeometry relative="1" as="geometry">
            <mxPoint x="3024.49" y="1957" as="sourcePoint" />
          </mxGeometry>
        </mxCell>
        <mxCell id="wr4I21qXE2OK-taXbtrC-116" value="" style="edgeStyle=orthogonalEdgeStyle;rounded=0;orthogonalLoop=1;jettySize=auto;html=1;" edge="1" parent="1" source="wr4I21qXE2OK-taXbtrC-118" target="wr4I21qXE2OK-taXbtrC-119">
          <mxGeometry relative="1" as="geometry" />
        </mxCell>
        <mxCell id="wr4I21qXE2OK-taXbtrC-117" value="" style="edgeStyle=orthogonalEdgeStyle;rounded=0;orthogonalLoop=1;jettySize=auto;html=1;exitX=0.559;exitY=0.89;exitDx=0;exitDy=0;exitPerimeter=0;" edge="1" parent="1" source="wr4I21qXE2OK-taXbtrC-118">
          <mxGeometry relative="1" as="geometry">
            <mxPoint x="3014.488461538461" y="2106.986422045387" as="sourcePoint" />
            <Array as="points">
              <mxPoint x="3024.49" y="2058" />
              <mxPoint x="3024.49" y="2107" />
              <mxPoint x="3105.49" y="2107" />
            </Array>
            <mxPoint x="3105.4799999999996" y="2146.9999999999995" as="targetPoint" />
          </mxGeometry>
        </mxCell>
        <mxCell id="wr4I21qXE2OK-taXbtrC-118" value="Confirmation&lt;div&gt;for restart&lt;/div&gt;" style="rhombus;whiteSpace=wrap;html=1;" vertex="1" parent="1">
          <mxGeometry x="2958.74" y="1987" width="130.5" height="80" as="geometry" />
        </mxCell>
        <mxCell id="wr4I21qXE2OK-taXbtrC-119" value="Exit the Game&amp;nbsp;" style="whiteSpace=wrap;html=1;" vertex="1" parent="1">
          <mxGeometry x="2963.99" y="2277" width="120" height="60" as="geometry" />
        </mxCell>
        <mxCell id="wr4I21qXE2OK-taXbtrC-120" value="Return to pause menu" style="whiteSpace=wrap;html=1;" vertex="1" parent="1">
          <mxGeometry x="3075.25" y="2149.9999999999995" width="120" height="60" as="geometry" />
        </mxCell>
        <mxCell id="wr4I21qXE2OK-taXbtrC-121" value="Yes" style="text;html=1;align=center;verticalAlign=middle;whiteSpace=wrap;rounded=0;" vertex="1" parent="1">
          <mxGeometry x="2954.49" y="2087" width="60" height="30" as="geometry" />
        </mxCell>
        <mxCell id="wr4I21qXE2OK-taXbtrC-122" value="No" style="text;html=1;align=center;verticalAlign=middle;resizable=0;points=[];autosize=1;strokeColor=none;fillColor=none;" vertex="1" parent="1">
          <mxGeometry x="3044.49" y="2085" width="40" height="30" as="geometry" />
        </mxCell>
        <mxCell id="wr4I21qXE2OK-taXbtrC-123" value="Door to the previous room are also temporary closed off" style="whiteSpace=wrap;html=1;" vertex="1" parent="1">
          <mxGeometry x="2495.75" y="1820" width="130" height="70" as="geometry" />
        </mxCell>
        <mxCell id="wr4I21qXE2OK-taXbtrC-124" value="" style="endArrow=classic;html=1;rounded=0;fontSize=12;startSize=8;endSize=8;curved=1;" edge="1" parent="1">
          <mxGeometry width="50" height="50" relative="1" as="geometry">
            <mxPoint x="3418.31" y="1491" as="sourcePoint" />
            <mxPoint x="3418.31" y="1511" as="targetPoint" />
          </mxGeometry>
        </mxCell>
        <mxCell id="wr4I21qXE2OK-taXbtrC-125" value="" style="edgeStyle=orthogonalEdgeStyle;rounded=0;orthogonalLoop=1;jettySize=auto;html=1;" edge="1" parent="1" source="wr4I21qXE2OK-taXbtrC-126" target="wr4I21qXE2OK-taXbtrC-128">
          <mxGeometry relative="1" as="geometry" />
        </mxCell>
        <mxCell id="wr4I21qXE2OK-taXbtrC-126" value="Enemies Interaction" style="rounded=0;whiteSpace=wrap;html=1;" vertex="1" parent="1">
          <mxGeometry x="3309" y="1511" width="217.5" height="60" as="geometry" />
        </mxCell>
        <mxCell id="wr4I21qXE2OK-taXbtrC-127" value="" style="edgeStyle=orthogonalEdgeStyle;rounded=0;orthogonalLoop=1;jettySize=auto;html=1;" edge="1" parent="1" source="wr4I21qXE2OK-taXbtrC-128" target="wr4I21qXE2OK-taXbtrC-131">
          <mxGeometry relative="1" as="geometry" />
        </mxCell>
        <mxCell id="wr4I21qXE2OK-taXbtrC-128" value="When the player enter the enemies FOV,&amp;nbsp; begin to target towards the player" style="whiteSpace=wrap;html=1;rounded=0;" vertex="1" parent="1">
          <mxGeometry x="3357.75" y="1621" width="120" height="60" as="geometry" />
        </mxCell>
        <mxCell id="wr4I21qXE2OK-taXbtrC-129" value="" style="edgeStyle=orthogonalEdgeStyle;rounded=0;orthogonalLoop=1;jettySize=auto;html=1;" edge="1" parent="1" source="wr4I21qXE2OK-taXbtrC-131" target="wr4I21qXE2OK-taXbtrC-133">
          <mxGeometry relative="1" as="geometry" />
        </mxCell>
        <mxCell id="wr4I21qXE2OK-taXbtrC-130" value="" style="edgeStyle=orthogonalEdgeStyle;rounded=0;orthogonalLoop=1;jettySize=auto;html=1;" edge="1" parent="1" source="wr4I21qXE2OK-taXbtrC-131" target="wr4I21qXE2OK-taXbtrC-133">
          <mxGeometry relative="1" as="geometry" />
        </mxCell>
        <mxCell id="wr4I21qXE2OK-taXbtrC-131" value="Melee or&amp;nbsp;&lt;div&gt;Projectile enemy&lt;/div&gt;" style="rhombus;whiteSpace=wrap;html=1;rounded=0;" vertex="1" parent="1">
          <mxGeometry x="3349.62" y="1714" width="136.25" height="85" as="geometry" />
        </mxCell>
        <mxCell id="wr4I21qXE2OK-taXbtrC-132" value="" style="edgeStyle=orthogonalEdgeStyle;rounded=0;orthogonalLoop=1;jettySize=auto;html=1;" edge="1" parent="1" source="wr4I21qXE2OK-taXbtrC-133" target="wr4I21qXE2OK-taXbtrC-138">
          <mxGeometry relative="1" as="geometry" />
        </mxCell>
        <mxCell id="wr4I21qXE2OK-taXbtrC-133" value="Enemy start to walk toward player until they are in the effective attack range" style="whiteSpace=wrap;html=1;rounded=0;" vertex="1" parent="1">
          <mxGeometry x="3272.005" y="1838" width="120" height="60" as="geometry" />
        </mxCell>
        <mxCell id="wr4I21qXE2OK-taXbtrC-134" value="Melee" style="text;html=1;align=center;verticalAlign=middle;whiteSpace=wrap;rounded=0;" vertex="1" parent="1">
          <mxGeometry x="3337" y="1799" width="60" height="30" as="geometry" />
        </mxCell>
        <mxCell id="wr4I21qXE2OK-taXbtrC-135" value="" style="edgeStyle=orthogonalEdgeStyle;rounded=0;orthogonalLoop=1;jettySize=auto;html=1;" edge="1" parent="1">
          <mxGeometry relative="1" as="geometry">
            <mxPoint x="3417" y="1819.004252873564" as="sourcePoint" />
            <mxPoint x="3500" y="1840" as="targetPoint" />
          </mxGeometry>
        </mxCell>
        <mxCell id="wr4I21qXE2OK-taXbtrC-136" value="Enemy begin to fire projectile. Depending on tier, attacks will be easier/harder to dodge" style="whiteSpace=wrap;html=1;rounded=0;" vertex="1" parent="1">
          <mxGeometry x="3435" y="1840" width="129.99" height="70" as="geometry" />
        </mxCell>
        <mxCell id="wr4I21qXE2OK-taXbtrC-137" value="Projectile" style="text;html=1;align=center;verticalAlign=middle;whiteSpace=wrap;rounded=0;" vertex="1" parent="1">
          <mxGeometry x="3425.87" y="1799" width="60" height="30" as="geometry" />
        </mxCell>
        <mxCell id="wr4I21qXE2OK-taXbtrC-138" value="Swing attacks at players(EXP: a sword spinning around enemy with x second for Tier 1)" style="whiteSpace=wrap;html=1;rounded=0;" vertex="1" parent="1">
          <mxGeometry x="3257.01" y="1940" width="150" height="80" as="geometry" />
        </mxCell>
        <mxCell id="wr4I21qXE2OK-taXbtrC-139" value="" style="edgeStyle=orthogonalEdgeStyle;rounded=0;orthogonalLoop=1;jettySize=auto;html=1;" edge="1" parent="1" source="wr4I21qXE2OK-taXbtrC-140" target="wr4I21qXE2OK-taXbtrC-141">
          <mxGeometry relative="1" as="geometry" />
        </mxCell>
        <mxCell id="wr4I21qXE2OK-taXbtrC-140" value="Unfreeze game" style="whiteSpace=wrap;html=1;" vertex="1" parent="1">
          <mxGeometry x="2598.75" y="1987" width="120" height="60" as="geometry" />
        </mxCell>
        <mxCell id="wr4I21qXE2OK-taXbtrC-141" value="Return to normal gameplay" style="whiteSpace=wrap;html=1;" vertex="1" parent="1">
          <mxGeometry x="2598.75" y="2127" width="120" height="60" as="geometry" />
        </mxCell>
        <mxCell id="wr4I21qXE2OK-taXbtrC-142" value="" style="edgeStyle=orthogonalEdgeStyle;rounded=0;orthogonalLoop=1;jettySize=auto;html=1;" edge="1" parent="1" source="wr4I21qXE2OK-taXbtrC-143" target="wr4I21qXE2OK-taXbtrC-145">
          <mxGeometry relative="1" as="geometry" />
        </mxCell>
        <mxCell id="wr4I21qXE2OK-taXbtrC-143" value="Interac button press near shop&amp;nbsp;" style="rhombus;whiteSpace=wrap;html=1;" vertex="1" parent="1">
          <mxGeometry x="-405" y="1510" width="160" height="79" as="geometry" />
        </mxCell>
        <mxCell id="wr4I21qXE2OK-taXbtrC-144" value="" style="edgeStyle=orthogonalEdgeStyle;rounded=0;orthogonalLoop=1;jettySize=auto;html=1;" edge="1" parent="1" source="wr4I21qXE2OK-taXbtrC-145" target="wr4I21qXE2OK-taXbtrC-146">
          <mxGeometry relative="1" as="geometry" />
        </mxCell>
        <mxCell id="wr4I21qXE2OK-taXbtrC-145" value="Open Shop menu" style="whiteSpace=wrap;html=1;" vertex="1" parent="1">
          <mxGeometry x="-385" y="1654" width="120" height="60" as="geometry" />
        </mxCell>
        <mxCell id="wr4I21qXE2OK-taXbtrC-146" value="Present upgrade and items option" style="whiteSpace=wrap;html=1;" vertex="1" parent="1">
          <mxGeometry x="-385" y="1794" width="120" height="60" as="geometry" />
        </mxCell>
        <mxCell id="wr4I21qXE2OK-taXbtrC-147" value="Reduce MP by 20" style="whiteSpace=wrap;html=1;" vertex="1" parent="1">
          <mxGeometry x="1742.5" y="1780" width="120" height="60" as="geometry" />
        </mxCell>
        <mxCell id="wr4I21qXE2OK-taXbtrC-148" value="Reduce MP by 20" style="whiteSpace=wrap;html=1;" vertex="1" parent="1">
          <mxGeometry x="1960" y="2170" width="120" height="60" as="geometry" />
        </mxCell>
        <mxCell id="wr4I21qXE2OK-taXbtrC-149" value="" style="edgeStyle=orthogonalEdgeStyle;rounded=0;orthogonalLoop=1;jettySize=auto;html=1;" edge="1" parent="1" target="wr4I21qXE2OK-taXbtrC-150">
          <mxGeometry relative="1" as="geometry">
            <mxPoint x="2180.5" y="2090" as="sourcePoint" />
          </mxGeometry>
        </mxCell>
        <mxCell id="wr4I21qXE2OK-taXbtrC-150" value="Reduce MP by 20" style="whiteSpace=wrap;html=1;" vertex="1" parent="1">
          <mxGeometry x="2120.5" y="2170" width="120" height="60" as="geometry" />
        </mxCell>
        <mxCell id="wr4I21qXE2OK-taXbtrC-151" value="" style="edgeStyle=orthogonalEdgeStyle;rounded=0;orthogonalLoop=1;jettySize=auto;html=1;" edge="1" parent="1" target="wr4I21qXE2OK-taXbtrC-152">
          <mxGeometry relative="1" as="geometry">
            <mxPoint x="2340" y="2090" as="sourcePoint" />
          </mxGeometry>
        </mxCell>
        <mxCell id="wr4I21qXE2OK-taXbtrC-152" value="Reduce MP by 20" style="whiteSpace=wrap;html=1;" vertex="1" parent="1">
          <mxGeometry x="2280" y="2170" width="120" height="60" as="geometry" />
        </mxCell>
        <mxCell id="wr4I21qXE2OK-taXbtrC-153" value="Player Spawn in to map" style="rounded=1;whiteSpace=wrap;html=1;" vertex="1" parent="1">
          <mxGeometry x="-265" y="1330" width="120" height="60" as="geometry" />
        </mxCell>
      </root>
    </mxGraphModel>
  </diagram>
</mxfile>
